<mxfile host="app.diagrams.net" modified="2024-05-22T14:44:58.810Z" agent="Mozilla/5.0 (Windows NT 10.0; Win64; x64) AppleWebKit/537.36 (KHTML, like Gecko) Chrome/121.0.0.0 Safari/537.36" etag="tBBf4VH5w5EDBjb_c4SX" version="24.4.6" type="device">
  <diagram name="Página-1" id="t5G8c8VLFhvmdUs8-SyG">
    <mxGraphModel dx="1434" dy="1951" grid="1" gridSize="10" guides="1" tooltips="1" connect="1" arrows="1" fold="1" page="1" pageScale="1" pageWidth="827" pageHeight="1169" math="0" shadow="0">
      <root>
        <mxCell id="0" />
        <mxCell id="1" parent="0" />
        <mxCell id="h2l4w2npLVPQKdY4Cb1m-90" value="" style="edgeStyle=orthogonalEdgeStyle;rounded=0;orthogonalLoop=1;jettySize=auto;html=1;" edge="1" parent="1" source="h2l4w2npLVPQKdY4Cb1m-1" target="h2l4w2npLVPQKdY4Cb1m-83">
          <mxGeometry relative="1" as="geometry" />
        </mxCell>
        <mxCell id="h2l4w2npLVPQKdY4Cb1m-1" value="Início" style="ellipse;whiteSpace=wrap;html=1;" vertex="1" parent="1">
          <mxGeometry x="358.75" y="-180" width="120" height="80" as="geometry" />
        </mxCell>
        <mxCell id="h2l4w2npLVPQKdY4Cb1m-6" style="edgeStyle=orthogonalEdgeStyle;rounded=0;orthogonalLoop=1;jettySize=auto;html=1;entryX=0.5;entryY=0;entryDx=0;entryDy=0;" edge="1" parent="1" target="h2l4w2npLVPQKdY4Cb1m-5">
          <mxGeometry relative="1" as="geometry">
            <mxPoint x="380" y="190" as="sourcePoint" />
          </mxGeometry>
        </mxCell>
        <mxCell id="h2l4w2npLVPQKdY4Cb1m-39" value="" style="edgeStyle=orthogonalEdgeStyle;rounded=0;orthogonalLoop=1;jettySize=auto;html=1;" edge="1" parent="1" source="h2l4w2npLVPQKdY4Cb1m-5" target="h2l4w2npLVPQKdY4Cb1m-38">
          <mxGeometry relative="1" as="geometry" />
        </mxCell>
        <mxCell id="h2l4w2npLVPQKdY4Cb1m-5" value="Criação de cadastro: nome, número e endereço" style="rounded=0;whiteSpace=wrap;html=1;" vertex="1" parent="1">
          <mxGeometry x="244" y="250" width="106" height="60" as="geometry" />
        </mxCell>
        <mxCell id="h2l4w2npLVPQKdY4Cb1m-64" value="" style="edgeStyle=orthogonalEdgeStyle;rounded=0;orthogonalLoop=1;jettySize=auto;html=1;" edge="1" parent="1" source="h2l4w2npLVPQKdY4Cb1m-7" target="h2l4w2npLVPQKdY4Cb1m-24">
          <mxGeometry relative="1" as="geometry" />
        </mxCell>
        <mxCell id="h2l4w2npLVPQKdY4Cb1m-7" value="Leitura da página" style="rounded=0;whiteSpace=wrap;html=1;" vertex="1" parent="1">
          <mxGeometry x="239" y="330" width="110" height="60" as="geometry" />
        </mxCell>
        <mxCell id="h2l4w2npLVPQKdY4Cb1m-46" value="" style="edgeStyle=orthogonalEdgeStyle;rounded=0;orthogonalLoop=1;jettySize=auto;html=1;" edge="1" parent="1" target="h2l4w2npLVPQKdY4Cb1m-45">
          <mxGeometry relative="1" as="geometry">
            <mxPoint x="530" y="370" as="sourcePoint" />
          </mxGeometry>
        </mxCell>
        <mxCell id="h2l4w2npLVPQKdY4Cb1m-24" value="Cadastro válido" style="ellipse;whiteSpace=wrap;html=1;" vertex="1" parent="1">
          <mxGeometry x="243.5" y="430" width="100" height="60" as="geometry" />
        </mxCell>
        <mxCell id="h2l4w2npLVPQKdY4Cb1m-30" value="não" style="text;html=1;align=center;verticalAlign=middle;whiteSpace=wrap;rounded=0;" vertex="1" parent="1">
          <mxGeometry x="330" y="160" width="60" height="30" as="geometry" />
        </mxCell>
        <mxCell id="h2l4w2npLVPQKdY4Cb1m-49" style="edgeStyle=orthogonalEdgeStyle;rounded=0;orthogonalLoop=1;jettySize=auto;html=1;entryX=0;entryY=0.5;entryDx=0;entryDy=0;" edge="1" parent="1" source="h2l4w2npLVPQKdY4Cb1m-38" target="h2l4w2npLVPQKdY4Cb1m-7">
          <mxGeometry relative="1" as="geometry">
            <Array as="points">
              <mxPoint x="130" y="360" />
            </Array>
          </mxGeometry>
        </mxCell>
        <mxCell id="h2l4w2npLVPQKdY4Cb1m-38" value="Dados válidos?" style="rhombus;whiteSpace=wrap;html=1;rounded=0;" vertex="1" parent="1">
          <mxGeometry x="90" y="240" width="80" height="80" as="geometry" />
        </mxCell>
        <mxCell id="h2l4w2npLVPQKdY4Cb1m-41" value="sim" style="text;html=1;align=center;verticalAlign=middle;whiteSpace=wrap;rounded=0;" vertex="1" parent="1">
          <mxGeometry x="147" y="330" width="60" height="30" as="geometry" />
        </mxCell>
        <mxCell id="h2l4w2npLVPQKdY4Cb1m-43" value="não" style="text;html=1;align=center;verticalAlign=middle;whiteSpace=wrap;rounded=0;" vertex="1" parent="1">
          <mxGeometry x="140" y="220" width="60" height="30" as="geometry" />
        </mxCell>
        <mxCell id="h2l4w2npLVPQKdY4Cb1m-68" style="edgeStyle=orthogonalEdgeStyle;rounded=0;orthogonalLoop=1;jettySize=auto;html=1;entryX=1;entryY=0;entryDx=0;entryDy=0;" edge="1" parent="1" source="h2l4w2npLVPQKdY4Cb1m-45" target="h2l4w2npLVPQKdY4Cb1m-55">
          <mxGeometry relative="1" as="geometry">
            <Array as="points">
              <mxPoint x="620" y="490" />
              <mxPoint x="620" y="175" />
            </Array>
          </mxGeometry>
        </mxCell>
        <mxCell id="h2l4w2npLVPQKdY4Cb1m-70" style="edgeStyle=orthogonalEdgeStyle;rounded=0;orthogonalLoop=1;jettySize=auto;html=1;entryX=1;entryY=0.5;entryDx=0;entryDy=0;" edge="1" parent="1" source="h2l4w2npLVPQKdY4Cb1m-45" target="h2l4w2npLVPQKdY4Cb1m-7">
          <mxGeometry relative="1" as="geometry" />
        </mxCell>
        <mxCell id="h2l4w2npLVPQKdY4Cb1m-45" value="Dados válidos?" style="rhombus;whiteSpace=wrap;html=1;rounded=0;" vertex="1" parent="1">
          <mxGeometry x="478.75" y="440" width="102.5" height="80" as="geometry" />
        </mxCell>
        <mxCell id="h2l4w2npLVPQKdY4Cb1m-66" style="edgeStyle=orthogonalEdgeStyle;rounded=0;orthogonalLoop=1;jettySize=auto;html=1;" edge="1" parent="1" source="h2l4w2npLVPQKdY4Cb1m-55">
          <mxGeometry relative="1" as="geometry">
            <mxPoint x="530" y="290" as="targetPoint" />
            <Array as="points">
              <mxPoint x="530" y="200" />
            </Array>
          </mxGeometry>
        </mxCell>
        <mxCell id="h2l4w2npLVPQKdY4Cb1m-55" value="Cliente cadastrado?" style="rhombus;whiteSpace=wrap;html=1;" vertex="1" parent="1">
          <mxGeometry x="358.75" y="150" width="120" height="100" as="geometry" />
        </mxCell>
        <mxCell id="h2l4w2npLVPQKdY4Cb1m-57" style="edgeStyle=orthogonalEdgeStyle;rounded=0;orthogonalLoop=1;jettySize=auto;html=1;entryX=0.333;entryY=0.12;entryDx=0;entryDy=0;entryPerimeter=0;" edge="1" parent="1" source="h2l4w2npLVPQKdY4Cb1m-38" target="h2l4w2npLVPQKdY4Cb1m-55">
          <mxGeometry relative="1" as="geometry">
            <Array as="points">
              <mxPoint x="130" y="152" />
            </Array>
          </mxGeometry>
        </mxCell>
        <mxCell id="h2l4w2npLVPQKdY4Cb1m-62" value="sim" style="text;html=1;align=center;verticalAlign=middle;whiteSpace=wrap;rounded=0;" vertex="1" parent="1">
          <mxGeometry x="470" y="210" width="60" height="30" as="geometry" />
        </mxCell>
        <mxCell id="h2l4w2npLVPQKdY4Cb1m-69" value="não" style="text;html=1;align=center;verticalAlign=middle;whiteSpace=wrap;rounded=0;" vertex="1" parent="1">
          <mxGeometry x="560" y="460" width="60" height="30" as="geometry" />
        </mxCell>
        <mxCell id="h2l4w2npLVPQKdY4Cb1m-71" value="sim" style="text;html=1;align=center;verticalAlign=middle;whiteSpace=wrap;rounded=0;" vertex="1" parent="1">
          <mxGeometry x="418.75" y="450" width="60" height="30" as="geometry" />
        </mxCell>
        <mxCell id="h2l4w2npLVPQKdY4Cb1m-75" value="" style="edgeStyle=orthogonalEdgeStyle;rounded=0;orthogonalLoop=1;jettySize=auto;html=1;" edge="1" parent="1" source="h2l4w2npLVPQKdY4Cb1m-72" target="h2l4w2npLVPQKdY4Cb1m-74">
          <mxGeometry relative="1" as="geometry" />
        </mxCell>
        <mxCell id="h2l4w2npLVPQKdY4Cb1m-72" value="Atualizar cliente?" style="rhombus;whiteSpace=wrap;html=1;" vertex="1" parent="1">
          <mxGeometry x="485" y="290" width="90" height="85" as="geometry" />
        </mxCell>
        <mxCell id="h2l4w2npLVPQKdY4Cb1m-73" value="sim" style="text;html=1;align=center;verticalAlign=middle;whiteSpace=wrap;rounded=0;" vertex="1" parent="1">
          <mxGeometry x="515" y="375" width="60" height="30" as="geometry" />
        </mxCell>
        <mxCell id="h2l4w2npLVPQKdY4Cb1m-74" value="Deletar/desativar" style="rounded=0;whiteSpace=wrap;html=1;" vertex="1" parent="1">
          <mxGeometry x="630" y="307.5" width="110" height="50" as="geometry" />
        </mxCell>
        <mxCell id="h2l4w2npLVPQKdY4Cb1m-76" value="não" style="text;html=1;align=center;verticalAlign=middle;whiteSpace=wrap;rounded=0;" vertex="1" parent="1">
          <mxGeometry x="570" y="310" width="60" height="30" as="geometry" />
        </mxCell>
        <mxCell id="h2l4w2npLVPQKdY4Cb1m-78" style="edgeStyle=orthogonalEdgeStyle;rounded=0;orthogonalLoop=1;jettySize=auto;html=1;entryX=0.667;entryY=0.89;entryDx=0;entryDy=0;entryPerimeter=0;" edge="1" parent="1" source="h2l4w2npLVPQKdY4Cb1m-74" target="h2l4w2npLVPQKdY4Cb1m-55">
          <mxGeometry relative="1" as="geometry">
            <Array as="points">
              <mxPoint x="680" y="239" />
            </Array>
          </mxGeometry>
        </mxCell>
        <mxCell id="h2l4w2npLVPQKdY4Cb1m-87" value="" style="edgeStyle=orthogonalEdgeStyle;rounded=0;orthogonalLoop=1;jettySize=auto;html=1;" edge="1" parent="1" source="h2l4w2npLVPQKdY4Cb1m-83" target="h2l4w2npLVPQKdY4Cb1m-86">
          <mxGeometry relative="1" as="geometry" />
        </mxCell>
        <mxCell id="h2l4w2npLVPQKdY4Cb1m-92" style="edgeStyle=orthogonalEdgeStyle;rounded=0;orthogonalLoop=1;jettySize=auto;html=1;entryX=0.25;entryY=0;entryDx=0;entryDy=0;" edge="1" parent="1" source="h2l4w2npLVPQKdY4Cb1m-83" target="h2l4w2npLVPQKdY4Cb1m-5">
          <mxGeometry relative="1" as="geometry" />
        </mxCell>
        <mxCell id="h2l4w2npLVPQKdY4Cb1m-83" value="Lista de clientes" style="rounded=0;whiteSpace=wrap;html=1;" vertex="1" parent="1">
          <mxGeometry x="353.75" y="-70" width="130" height="50" as="geometry" />
        </mxCell>
        <mxCell id="h2l4w2npLVPQKdY4Cb1m-91" value="" style="edgeStyle=orthogonalEdgeStyle;rounded=0;orthogonalLoop=1;jettySize=auto;html=1;" edge="1" parent="1" source="h2l4w2npLVPQKdY4Cb1m-86" target="h2l4w2npLVPQKdY4Cb1m-55">
          <mxGeometry relative="1" as="geometry" />
        </mxCell>
        <mxCell id="h2l4w2npLVPQKdY4Cb1m-86" value="Buscar por cliente" style="rounded=0;whiteSpace=wrap;html=1;" vertex="1" parent="1">
          <mxGeometry x="350" y="40" width="137.5" height="50" as="geometry" />
        </mxCell>
      </root>
    </mxGraphModel>
  </diagram>
</mxfile>
